<svg width="64" height="19" viewBox="0 0 64 19" fill="none" xmlns="http://www.w3.org/2000/svg">
<g id="Group">
<g id="Group_2">
<path id="Vector" d="M2.85197 5.0032L2.45178 6.02163C2.41641 6.10575 2.28797 6.13976 2.16885 6.09859C1.89708 6.01984 1.61601 5.87844 1.32192 5.67081C1.02968 5.46677 0.798866 5.2502 0.627619 5.02289C0.368886 4.67745 0.188332 4.30158 0.087817 3.90065C-0.00897503 3.49614 -0.0238661 3.10595 0.0338368 2.72292C0.0952625 2.34347 0.236728 1.97655 0.456371 1.62574C0.677876 1.27493 0.962668 0.976025 1.32005 0.729025C1.67558 0.482025 2.06089 0.313778 2.47597 0.222496C2.89106 0.131213 3.29871 0.116895 3.69332 0.18133C4.09352 0.245764 4.47324 0.383583 4.83807 0.600155C5.20663 0.814938 5.5212 1.09774 5.77993 1.44318C5.9456 1.66512 6.0852 1.94613 6.19316 2.28083C6.30484 2.61553 6.36068 2.92876 6.35882 3.22229C6.36068 3.34042 6.2732 3.42992 6.17641 3.4335L5.04841 3.46392C4.94045 3.46392 4.8511 3.36727 4.8511 3.22945C4.85482 3.063 4.83249 2.89475 4.77851 2.71934C4.72453 2.54394 4.65566 2.39896 4.57003 2.28441C4.29269 1.9157 3.92413 1.69197 3.46251 1.62037C3.00461 1.54699 2.58766 1.64364 2.20421 1.90854C1.82449 2.17165 1.5974 2.52246 1.52667 2.96455C1.45966 3.40307 1.5639 3.81115 1.84124 4.17986C1.92687 4.29442 2.04413 4.40181 2.19677 4.50204C2.35126 4.60406 2.50203 4.68103 2.65653 4.72935C2.8073 4.77589 2.89106 4.89581 2.85197 5.0032Z" fill="#414141"/>
<path id="Vector_2" d="M7.3565 3.83624C7.44957 3.7378 7.5687 3.73422 7.66921 3.82371L10.5655 6.3832C10.6679 6.47269 10.6716 6.58725 10.5786 6.6839L9.92707 7.36404C9.82842 7.46786 9.72232 7.47143 9.61436 7.37657L7.6599 5.64936L6.97491 6.3653L8.45844 7.67727C8.57012 7.77571 8.58129 7.89384 8.48077 7.99765L7.94283 8.55967C7.84977 8.65811 7.72505 8.65632 7.61523 8.55967L6.13171 7.2477L5.4281 7.98512L7.38256 9.71233C7.5203 9.83404 7.53147 9.99155 7.4142 10.1115L6.80367 10.7504C6.71246 10.8453 6.59147 10.8471 6.49095 10.7576L3.53507 8.148C3.4327 8.05851 3.42525 7.94754 3.51832 7.84909L7.3565 3.83624Z" fill="#414141"/>
<path id="Vector_3" d="M13.6184 12.2575C13.611 12.5421 13.5272 12.8088 13.3653 13.0576C13.0582 13.5319 12.6598 13.804 12.1703 13.8755C11.6845 13.9489 11.154 13.8165 10.5825 13.4728L8.57036 12.2665C8.47729 12.211 8.46054 12.1394 8.51638 12.0535L11.5802 7.32825C11.6361 7.24234 11.7105 7.22623 11.8017 7.28172L13.665 8.39859C14.2104 8.72613 14.551 9.10558 14.6887 9.53873C14.8265 9.97187 14.7483 10.4175 14.4542 10.8722C14.2178 11.2373 13.8046 11.4771 13.3895 11.4897C13.5496 11.7188 13.6259 11.9729 13.6184 12.2575ZM11.2843 12.356C11.6137 12.5546 11.9525 12.4812 12.1535 12.1716C12.3508 11.8673 12.2634 11.5541 11.932 11.3572L11.087 10.8507L10.4392 11.8494L11.2843 12.356ZM12.2354 9.08231L11.6882 9.92534L12.3862 10.3442C12.6673 10.5124 12.9465 10.4533 13.114 10.1938C13.2815 9.93429 13.2127 9.66939 12.9316 9.50114L12.2354 9.08231Z" fill="#414141"/>
<path id="Vector_4" d="M16.4635 10.1866C16.5156 10.0631 16.6236 10.0184 16.752 10.0685L20.4022 11.4771C20.5306 11.5272 20.5771 11.631 20.525 11.7545L20.1676 12.6119C20.1137 12.7425 20.015 12.7819 19.8791 12.73L17.4146 11.7796L17.0387 12.6817L18.9093 13.403C19.0489 13.4567 19.1029 13.5641 19.0489 13.6947L18.753 14.4035C18.7009 14.527 18.5855 14.5682 18.4459 14.5145L16.5752 13.7932L16.188 14.7221L18.6525 15.6725C18.8274 15.7405 18.8945 15.8819 18.8293 16.0359L18.4924 16.8413C18.4421 16.9612 18.3305 17.0042 18.202 16.954L14.4774 15.5168C14.3489 15.4667 14.3006 15.3664 14.3527 15.2429L16.4635 10.1866Z" fill="#414141"/>
<path id="Vector_5" d="M23.9786 12.3451C24.6152 12.4793 25.0898 12.7693 25.4026 13.2185C25.7153 13.6642 25.8065 14.1886 25.6669 14.7936C25.531 15.3914 25.2201 15.8281 24.7418 16.1056C24.2634 16.3794 23.7087 16.451 23.0702 16.3168L22.3555 16.1664L21.9981 17.729C21.9683 17.8578 21.8696 17.9205 21.7263 17.8901L20.6802 17.6699C20.5462 17.6413 20.4866 17.5464 20.5145 17.4175L21.73 12.0963C21.758 11.9746 21.8641 11.903 21.9906 11.9298L22.5174 12.0408L23.0479 12.1536L23.9786 12.3451ZM23.3048 15.0102C23.5132 15.0549 23.7031 15.0245 23.8688 14.9243C24.0382 14.824 24.1443 14.6737 24.1908 14.4732C24.2373 14.2728 24.2057 14.0938 24.0959 13.9345C23.9916 13.7716 23.8315 13.6678 23.6231 13.6248L22.9697 13.487L22.6533 14.8742L23.3048 15.0102Z" fill="#414141"/>
<path id="Vector_6" d="M31.2765 13.131C31.4068 13.1381 31.4887 13.2312 31.4812 13.3547L31.1685 18.7995C31.1611 18.9319 31.0773 19.0089 30.9396 18.9999L29.8711 18.9426C29.7241 18.9355 29.6459 18.8496 29.6534 18.7171L29.7464 17.0955L29.1247 17.0633L28.1363 18.6706C28.0488 18.8066 27.993 18.8442 27.872 18.837L26.623 18.7708C26.489 18.7637 26.422 18.6312 26.4946 18.5184L27.6728 16.6677C27.0958 16.2954 26.7831 15.6708 26.8259 14.9352C26.8613 14.3212 27.0902 13.838 27.5165 13.489C27.9427 13.1364 28.4844 12.9806 29.1359 13.0146L31.0029 13.1131L31.2765 13.131ZM29.819 15.839L29.9028 14.3767L29.1229 14.3356C28.9051 14.3248 28.7227 14.3821 28.5775 14.5074C28.4323 14.6327 28.3522 14.7973 28.3392 15.0068C28.328 15.2162 28.3876 15.3952 28.5179 15.5509C28.6519 15.703 28.8269 15.7853 29.0391 15.7961L29.819 15.839Z" fill="#414141"/>
<path id="Vector_7" d="M37.8868 12.5528C37.9911 12.5403 38.0506 12.5868 38.0637 12.6906L38.7524 18.2177C38.7654 18.3215 38.717 18.3788 38.6146 18.3913L37.4401 18.5273C37.3359 18.5399 37.2763 18.4933 37.2633 18.3895L36.9897 16.1934L34.7188 16.4547L34.9924 18.6508C35.0054 18.7547 34.957 18.8119 34.8547 18.8245L33.6838 18.9587C33.5759 18.9712 33.5163 18.9247 33.5033 18.8209L32.8146 13.2938C32.8015 13.19 32.8499 13.1327 32.9579 13.1202L34.1287 12.9859C34.2329 12.9734 34.2925 13.02 34.3055 13.1238L34.5568 15.1409L36.8277 14.8796L36.5764 12.8624C36.5634 12.7586 36.6118 12.7014 36.7142 12.6888L37.8868 12.5528Z" fill="#414141"/>
<path id="Vector_8" d="M39.7982 13.9776C39.8317 13.5641 39.9396 13.1864 40.1183 12.8464C40.3008 12.5045 40.552 12.1966 40.8741 11.9282C41.1942 11.6561 41.5609 11.4556 41.9779 11.3232C42.3948 11.1908 42.8136 11.1424 43.2362 11.1782C43.6606 11.2086 44.0533 11.3125 44.407 11.4843C44.7644 11.6543 45.0864 11.896 45.3656 12.2092C45.6485 12.517 45.857 12.8696 45.9947 13.2706C46.1771 13.8021 46.2107 14.3337 46.0971 14.8599C45.9836 15.388 45.7434 15.8533 45.3656 16.2578C44.9933 16.6605 44.528 16.9469 43.9714 17.1241C43.5545 17.2566 43.1356 17.3049 42.7112 17.2745C42.285 17.2405 41.8922 17.1366 41.5349 16.9666C41.1812 16.7948 40.861 16.5549 40.58 16.2489C40.3026 15.9392 40.0923 15.5866 39.9564 15.1893C39.8168 14.7884 39.7665 14.3856 39.7982 13.9776ZM42.218 15.66C42.6256 15.8569 43.0519 15.882 43.4968 15.7406C43.9379 15.6009 44.2599 15.336 44.4665 14.9459C44.6713 14.5539 44.7048 14.1512 44.5577 13.727C44.4107 13.2992 44.1333 12.9896 43.7257 12.7927C43.3181 12.5958 42.8937 12.5654 42.4544 12.705C42.0132 12.8446 41.6875 13.1131 41.4827 13.505C41.278 13.897 41.2463 14.3051 41.3934 14.7311C41.5386 15.1571 41.8122 15.4631 42.218 15.66Z" fill="#414141"/>
<path id="Vector_9" d="M49.9458 7.77392C50.0464 7.71843 50.1711 7.75602 50.2362 7.86341L53.0655 12.5815C53.1269 12.6817 53.0934 12.8124 52.9873 12.8696L52.0492 13.3887C51.945 13.4478 51.8165 13.4102 51.7551 13.3099L50.8002 11.7188C50.6829 12.1036 50.3963 12.4705 49.9924 12.696C49.3688 13.0415 48.7471 13.131 48.1291 12.9681C47.5093 12.8016 47.0086 12.4025 46.6289 11.7689L45.7708 10.337C45.7093 10.2368 45.7372 10.1043 45.8359 10.0506L46.7666 9.53513C46.882 9.4707 47.0179 9.50291 47.0812 9.61031L47.9374 11.0386C48.265 11.5845 48.7955 11.7223 49.3651 11.4073C49.6517 11.248 49.8267 11.044 49.903 10.7934C49.9793 10.5428 49.9403 10.2851 49.7839 10.0238L48.9239 8.5883C48.8625 8.48807 48.8942 8.35383 48.9965 8.29834L49.9458 7.77392Z" fill="#414141"/>
<path id="Vector_10" d="M59.2334 7.60021C59.3767 7.63422 59.4456 7.76309 59.3376 7.85617L58.3027 8.74572C58.2375 8.80121 58.1593 8.82626 58.0756 8.81553L55.3896 8.14612L54.7474 8.6974L56.2328 10.2957C56.3054 10.3745 56.3017 10.4479 56.2235 10.5141L55.3356 11.2784C55.2537 11.3482 55.1774 11.3446 55.1048 11.2658L51.2517 7.11874C51.1829 7.04357 51.1866 6.97018 51.2666 6.90038L52.1545 6.13611C52.2327 6.06989 52.309 6.07347 52.3797 6.14864L53.7944 7.67181L54.297 7.24045L54.0606 4.69886C54.0457 4.54493 54.0941 4.48229 54.2039 4.38742L55.2295 3.50682C55.3449 3.40837 55.4715 3.48355 55.4845 3.64284L55.7619 6.74824L59.2334 7.60021Z" fill="#414141"/>
<path id="Vector_11" d="M63.8473 1.67226C63.9906 1.70627 64.0483 1.80829 63.9552 1.93716L63.2721 2.87146C63.2051 2.96275 63.0766 3.00033 62.9538 2.97169L62.1385 2.74438L60.9193 4.41074L61.4163 5.06582C61.4926 5.15711 61.4982 5.28955 61.4237 5.38979L60.7425 6.32051C60.6531 6.44222 60.5359 6.43685 60.4465 6.31156L57.0979 1.42168C57.0234 1.30713 57.0271 1.17647 57.0942 1.08519L57.6023 0.390724C57.6693 0.299442 57.8033 0.256485 57.9281 0.286912L63.8473 1.67226ZM60.1319 3.3762L60.8579 2.38283L58.9797 1.85482L60.1319 3.3762Z" fill="#414141"/>
</g>
</g>
</svg>
